<svg t="1653275457258" class="icon" viewBox="0 0 1024 1024" version="1.1" xmlns="http://www.w3.org/2000/svg" p-id="5099" width="200" height="200"><path d="M824.44 639.186l0.356 0.198 134.356 75.285 0.44 0.251c9.941 5.767 16.104 16.087 16.4 27.279l0.008 0.431v139.26l-0.004 0.496c-0.171 11.06-6.079 21.33-15.755 27.235l-0.384 0.23-0.362 0.213-134.4 77.382-0.476 0.27c-10.35 5.739-23.061 5.715-33.397-0.09l-0.372-0.211-134.345-77.351-0.439-0.257c-9.749-5.81-15.766-16.025-16.059-27.081l-0.007-0.372V743.037l0.004-0.494c0.173-11.196 6.223-21.573 16.09-27.439l0.412-0.242 0.424-0.24 134.318-75.263c10.263-5.75 22.873-5.814 33.192-0.173zM560 896c17.673 0 32 14.327 32 32 0 17.673-14.327 32-32 32H224c-17.673 0-32-14.327-32-32 0-17.673 14.327-32 32-32h336z m248-122c-22.091 0-40 17.909-40 40s17.909 40 40 40 40-17.909 40-40-17.909-40-40-40z m27.429-678C886.554 96 928 138.98 928 192v425.866c0 8.837-7.163 16-16 16a16 16 0 0 1-7.808-2.034l-74.597-41.708-0.458-0.253c-13.106-7.15-29.085-7.158-42.191-0.046l-0.484 0.267-172.695 96.555-0.545 0.309-0.53 0.31c-12.539 7.438-20.283 20.53-20.676 34.702l-0.011 0.5-0.005 0.635V816c0 8.837-7.163 16-16 16H156.571C105.446 832 64 789.02 64 736V192c0-53.02 41.446-96 92.571-96H835.43z m-416.11 256.161c-22.16-13.637-50.345-12.489-71.309 2.837l-0.633 0.47L236.8 438.4l-0.42 0.32c-13.637 10.578-16.423 30.088-6.291 44.058l0.311 0.422 0.32 0.42c10.578 13.637 30.088 16.423 44.058 6.291l0.422-0.311 101.866-76.398a16 16 0 0 1 17.667-1.018l0.318 0.191 162.276 99.862c21.517 13.24 48.786 12.574 69.615-1.64l0.629-0.436 142.78-99.946 0.43-0.307c13.976-10.124 17.4-29.532 7.731-43.827l-0.297-0.432-0.307-0.43c-10.124-13.976-29.532-17.4-43.827-7.731l-0.432 0.297-134.17 93.918a16 16 0 0 1-17.24 0.711l-0.32-0.192-162.6-100.06z" fill="#ffffff" p-id="5100"></path></svg>