<svg t="1653286759942" class="icon" viewBox="0 0 1024 1024" version="1.1" xmlns="http://www.w3.org/2000/svg" p-id="3631" width="200" height="200"><path d="M588.288 959.488H432.128l-40.96-143.872-10.752-4.608-131.072 72.704L138.752 773.12l72.704-130.56-4.608-10.752-143.872-40.96V434.176l143.872-40.96 4.608-10.752-72.704-131.072 110.592-110.592 131.072 72.704 10.752-4.608 40.96-143.872h156.16l40.96 143.872 10.752 4.608 131.072-72.704 110.592 110.592L808.96 381.952l4.608 10.752 143.872 40.96v156.16l-143.872 40.96-4.608 10.752 72.704 130.56-110.592 110.592-141.312-77.312 22.528-40.96 110.592 61.44 60.928-60.928-67.072-120.832 5.12-10.752c4.608-9.216 8.704-18.944 11.776-28.672l4.096-11.264 133.12-37.888V469.504l-133.12-37.888-4.096-11.264c-3.584-9.728-7.168-18.944-11.776-28.672l-5.12-10.752 67.072-120.832-60.928-61.44L642.048 266.24l-10.752-5.12c-9.216-4.608-18.944-8.704-28.672-11.776l-11.264-4.096-37.888-133.12H467.456l-37.888 133.12-11.264 4.096c-9.728 3.584-19.456 7.168-28.672 11.776L378.88 266.24 257.536 198.656 196.608 259.584l67.072 120.832-5.12 10.752c-4.608 9.728-8.704 18.944-11.776 28.672l-4.096 11.264-133.12 37.888v86.016l133.12 37.888 4.096 11.264c3.584 9.728 7.168 18.944 11.776 28.672l5.12 10.752-67.072 120.832 60.928 60.928 120.832-67.072 10.752 5.12c9.216 4.608 18.944 8.704 28.672 11.776l11.264 4.096 37.888 133.12H552.96l29.184-101.376 45.056 12.8-38.912 135.68z m-77.824-239.616c-114.688 0-207.872-93.184-207.872-207.872 0-114.688 93.184-207.872 207.872-207.872 114.688 0 207.872 93.184 207.872 207.872-0.512 114.688-93.696 207.872-207.872 207.872z m0-356.352c-81.92 0-148.992 66.56-148.992 148.992 0 81.92 66.56 148.992 148.992 148.992 81.92 0 148.992-66.56 148.992-148.992C658.944 430.08 592.384 363.52 510.464 363.52z" p-id="3632"></path></svg>